<svg xmlns="http://www.w3.org/2000/svg" viewBox="0 0 720 160" fill="none">
  <g transform="translate(8, 8)">
    <rect width="144" height="144" rx="36" fill="#0b0a08"/>
    <g transform="scale(0.28125)">
      <path fill-rule="evenodd" d="M256 96 L416 256 L256 416 L96 256 Z M256 176 L336 256 L256 336 L176 256 Z" fill="#ff4d00"/><circle cx="256" cy="256" r="28" fill="#ede8dc"/>
    </g>
  </g>
  <!-- SYNCVOTES in Syne Bold, letter-spacing 0.14em, as outlines: no font needed to render it. -->
  <path d="M177.768 86.664H184.788Q184.996 88.432 186.426 89.862Q187.856 91.292 190.196 92.098Q192.536 92.904 195.448 92.904Q198.1 92.904 199.816 92.332Q201.532 91.76 202.364 90.72Q203.196 89.68 203.196 88.224Q203.196 86.82 202.156 86.066Q201.11599999999999 85.312 198.88 84.818Q196.644 84.324 193.004 83.804Q190.144 83.388 187.596 82.634Q185.048 81.88 183.098 80.684Q181.148 79.488 180.03 77.74600000000001Q178.912 76.004 178.912 73.612Q178.912 70.648 180.602 68.412Q182.292 66.176 185.62 64.928Q188.948 63.68 193.784 63.68Q201.064 63.68 204.99 66.774Q208.916 69.868 208.812 75.276H202.052Q201.844 72.208 199.478 70.856Q197.112 69.504 193.524 69.504Q190.196 69.504 188.038 70.492Q185.88 71.48 185.88 73.872Q185.88 74.80799999999999 186.39999999999998 75.50999999999999Q186.92 76.212 188.168 76.732Q189.416 77.25200000000001 191.548 77.72Q193.68 78.188 196.852 78.656Q199.816 79.072 202.23399999999998 79.774Q204.652 80.476 206.394 81.594Q208.136 82.712 209.072 84.428Q210.00799999999998 86.144 210.00799999999998 88.64Q210.00799999999998 91.708 208.422 93.97Q206.836 96.232 203.534 97.47999999999999Q200.232 98.728 194.98 98.728Q191.236 98.728 188.37599999999998 97.922Q185.516 97.116 183.43599999999998 95.76400000000001Q181.356 94.412 180.05599999999998 92.80000000000001Q178.756 91.188 178.20999999999998 89.576Q177.664 87.964 177.768 86.664Z M256.86 64.356 242.09199999999998 87.392V98.0H235.124V87.392L220.356 64.356H228.364L240.792 84.48H236.632L248.852 64.356Z M303.24399999999997 91.136 301.06 92.02V64.356H307.976V98.0H301.06L273.864 71.428L276.048 70.544V98.0H269.132V64.356H276.048Z M362.524 85.884Q362.056 89.94 359.664 92.8Q357.272 95.66 353.164 97.168Q349.056 98.676 343.388 98.676Q338.656 98.676 334.73 97.584Q330.804 96.492 327.96999999999997 94.30799999999999Q325.13599999999997 92.124 323.57599999999996 88.874Q322.01599999999996 85.624 322.01599999999996 81.256Q322.01599999999996 76.888 323.57599999999996 73.612Q325.13599999999997 70.336 327.96999999999997 68.126Q330.804 65.916 334.73 64.798Q338.656 63.68 343.388 63.68Q349.056 63.68 353.19 65.24Q357.324 66.8 359.716 69.686Q362.108 72.572 362.524 76.68H355.65999999999997Q354.984 74.49600000000001 353.398 72.91Q351.812 71.324 349.31600000000003 70.49199999999999Q346.82 69.66 343.388 69.66Q339.12399999999997 69.66 335.9 70.98599999999999Q332.676 72.312 330.908 74.886Q329.14 77.46000000000001 329.14 81.256Q329.14 85.0 330.908 87.548Q332.676 90.096 335.9 91.422Q339.12399999999997 92.748 343.388 92.748Q346.82 92.748 349.28999999999996 91.916Q351.76 91.084 353.346 89.524Q354.932 87.964 355.65999999999997 85.884Z M388.472 98.0 373.6 64.356H381.244L393.984 94.724H391.592L404.28 64.356H411.82L397.104 98.0Z M444.164 98.676Q437.45599999999996 98.676 432.698 96.57Q427.94 94.464 425.418 90.564Q422.89599999999996 86.664 422.89599999999996 81.20400000000001Q422.89599999999996 75.69200000000001 425.418 71.792Q427.94 67.892 432.698 65.786Q437.45599999999996 63.68 444.164 63.68Q450.924 63.68 455.65599999999995 65.786Q460.388 67.892 462.90999999999997 71.792Q465.43199999999996 75.69200000000001 465.43199999999996 81.20400000000001Q465.43199999999996 86.664 462.90999999999997 90.564Q460.388 94.464 455.65599999999995 96.57Q450.924 98.676 444.164 98.676ZM444.164 92.696Q448.32399999999996 92.696 451.46999999999997 91.44800000000001Q454.616 90.2 456.40999999999997 87.652Q458.204 85.104 458.204 81.20400000000001Q458.204 77.304 456.40999999999997 74.756Q454.616 72.208 451.46999999999997 70.934Q448.32399999999996 69.66 444.164 69.66Q440.056 69.66 436.832 70.934Q433.608 72.208 431.788 74.756Q429.96799999999996 77.304 429.96799999999996 81.20400000000001Q429.96799999999996 85.104 431.788 87.652Q433.608 90.2 436.832 91.44800000000001Q440.056 92.696 444.164 92.696Z M476.508 64.356H511.972V70.128H476.508ZM490.80799999999994 69.4H497.72399999999993V98.0H490.80799999999994Z M531.2119999999999 83.96000000000001V92.228H557.1599999999999V98.0H524.2959999999999V64.356H557.108V70.128H531.2119999999999V78.5H552.4279999999999V83.96000000000001Z M569.328 86.664H576.348Q576.5559999999999 88.432 577.9859999999999 89.862Q579.4159999999999 91.292 581.7559999999999 92.098Q584.0959999999999 92.904 587.0079999999999 92.904Q589.66 92.904 591.376 92.332Q593.092 91.76 593.924 90.72Q594.756 89.68 594.756 88.224Q594.756 86.82 593.7159999999999 86.066Q592.6759999999999 85.312 590.4399999999999 84.818Q588.204 84.324 584.564 83.804Q581.704 83.388 579.156 82.634Q576.608 81.88 574.6579999999999 80.684Q572.708 79.488 571.5899999999999 77.74600000000001Q570.472 76.004 570.472 73.612Q570.472 70.648 572.162 68.412Q573.852 66.176 577.18 64.928Q580.5079999999999 63.68 585.3439999999999 63.68Q592.6239999999999 63.68 596.55 66.774Q600.4759999999999 69.868 600.372 75.276H593.612Q593.404 72.208 591.038 70.856Q588.6719999999999 69.504 585.084 69.504Q581.756 69.504 579.598 70.492Q577.4399999999999 71.48 577.4399999999999 73.872Q577.4399999999999 74.80799999999999 577.9599999999999 75.50999999999999Q578.4799999999999 76.212 579.728 76.732Q580.976 77.25200000000001 583.108 77.72Q585.2399999999999 78.188 588.4119999999999 78.656Q591.376 79.072 593.794 79.774Q596.212 80.476 597.954 81.594Q599.6959999999999 82.712 600.632 84.428Q601.568 86.144 601.568 88.64Q601.568 91.708 599.982 93.97Q598.396 96.232 595.0939999999999 97.47999999999999Q591.7919999999999 98.728 586.54 98.728Q582.7959999999999 98.728 579.9359999999999 97.922Q577.0759999999999 97.116 574.9959999999999 95.76400000000001Q572.9159999999999 94.412 571.616 92.80000000000001Q570.3159999999999 91.188 569.77 89.576Q569.2239999999999 87.964 569.328 86.664Z" fill="#ede8dc"/>
</svg>
